<svg width="24px" height="24px" viewBox="0 0 5559 8892" version="1.1" xmlns="http://www.w3.org/2000/svg" xmlns:xlink="http://www.w3.org/1999/xlink" xml:space="preserve" xmlns:serif="http://www.serif.com/" style="fill-rule:evenodd;clip-rule:evenodd;stroke-linejoin:round;stroke-miterlimit:2;"><path d="M0,958.333l0,6437.5c0,211.805 171.875,381.946 381.946,381.946c109.375,0 215.275,-46.875 288.192,-130.208l1434.03,-1640.62l1008.68,2019.1c137.154,274.304 470.487,385.416 744.792,248.262c274.308,-137.15 385.416,-470.483 248.266,-744.791l-984.375,-1973.96l2050.35,0c211.804,0 383.679,-171.875 383.679,-383.679c0,-109.375 -46.875,-213.542 -128.471,-286.458l-4756.96,-4227.42c-74.65,-65.975 -168.4,-102.433 -267.358,-102.433c-222.225,-0 -402.78,180.558 -402.78,402.779l0.013,-0.013Z" style="fill:url(#_Linear1);fill-rule:nonzero;"/><defs><linearGradient id="_Linear1" x1="0" y1="0" x2="1" y2="0" gradientUnits="userSpaceOnUse" gradientTransform="matrix(5555.54,0,0,5555.54,0,4444.29)"><stop offset="0" style="stop-color:#1c1c1c;stop-opacity:1"/><stop offset="0" style="stop-color:#66dcc9;stop-opacity:1"/><stop offset="1" style="stop-color:#08463b;stop-opacity:1"/></linearGradient></defs></svg>