<svg width="24px" height="24px" viewBox="0 0 23163 37050" version="1.1" xmlns="http://www.w3.org/2000/svg" xmlns:xlink="http://www.w3.org/1999/xlink" xml:space="preserve" xmlns:serif="http://www.serif.com/" style="fill-rule:evenodd;clip-rule:evenodd;stroke-linejoin:round;stroke-miterlimit:2;"><path d="M0,3993.05l0,26822.9c0,882.521 716.146,1591.44 1591.44,1591.44c455.729,-0 896.979,-195.313 1200.8,-542.534l5975.12,-6835.92l4202.83,8412.92c571.475,1142.93 1960.36,1605.9 3103.3,1034.42c1142.95,-571.458 1605.9,-1960.35 1034.44,-3103.3l-4101.56,-8224.83l8543.12,0c882.517,0 1598.66,-716.146 1598.66,-1598.66c-0,-455.729 -195.313,-889.758 -535.296,-1193.57l-19820.7,-17614.3c-311.042,-274.895 -701.667,-426.804 -1113.99,-426.804c-925.937,0 -1678.25,752.325 -1678.25,1678.25l0.055,-0.054l-0.017,-0.021Z" style="fill:url(#_Linear1);fill-rule:nonzero;"/><defs><linearGradient id="_Linear1" x1="0" y1="0" x2="1" y2="0" gradientUnits="userSpaceOnUse" gradientTransform="matrix(23148.1,0,0,23148.1,0,18517.9)"><stop offset="0" style="stop-color:#1c1c1c;stop-opacity:1"/><stop offset="0" style="stop-color:#664794;stop-opacity:1"/><stop offset="1" style="stop-color:#3d2a5b;stop-opacity:1"/></linearGradient></defs></svg>